<svg version="1.1" xmlns="http://www.w3.org/2000/svg" viewBox="0 0 903.5703125 493.9921875" width="1807.140625" height="987.984375" filter="invert(93%) hue-rotate(180deg)">
  <!-- svg-source:excalidraw -->
  
  <defs>
    <style>
      @font-face {
        font-family: "Virgil";
        src: url("https://excalidraw.com/Virgil.woff2");
      }
      @font-face {
        font-family: "Cascadia";
        src: url("https://excalidraw.com/Cascadia.woff2");
      }

      .d-none {
        display: none;
      }
    </style>
  </defs>
  <rect x="0" y="0" width="903.5703125" height="493.9921875" fill="#ffffff"></rect><g stroke-linecap="round" transform="translate(308.09375 10) rotate(0 86.427734375 38.337890625)"><path d="M-1.14 1.12 C67.6 -1.5, 131.25 0.82, 171.98 1.11 M-0.1 0.64 C55.19 -1.47, 107.7 -1.8, 172.75 0.46 M173.4 0.5 C173.49 17.26, 172.4 34.1, 174.06 77.07 M173.51 -0.71 C173.59 29.72, 172.17 60.41, 172.41 77.5 M171 78.42 C113.48 77.76, 50.54 75.76, 1.26 78.49 M172.69 77.08 C103.2 75.86, 34.33 76.04, -0.67 76.2 M-0.75 75.37 C-1.96 47.03, 0.22 17.13, -1.96 0.71 M-0.09 76.07 C0.34 53.64, 1.59 29.39, -0.65 0.44" stroke="#000000" stroke-width="1" fill="none"></path></g><g stroke-linecap="round" transform="translate(209.177734375 114.767578125) rotate(0 86.5 38.337890625)"><path d="M1.48 -1.84 C44.44 0, 91.21 -2.54, 171.35 -0.77 M0.94 0.54 C59.7 0.36, 118.61 0.11, 172.61 0.12 M171.51 -1.38 C174.78 17.98, 172.96 34.51, 173.84 74.76 M173.17 0.54 C172.02 30.64, 173.2 60, 172.9 75.99 M171.62 75.42 C133.17 73.73, 95.33 75.25, -0.19 76.52 M172.53 77.05 C135.53 77.57, 96.72 77.7, 0.99 76.55 M-0.86 76.69 C-0.12 57.58, -2.5 41.36, 0.61 0.33 M-0.93 75.95 C0.61 54.2, 0.27 31.57, 0.17 0.16" stroke="#000000" stroke-width="1" fill="none"></path></g><g stroke-linecap="round" transform="translate(419.908203125 111.818359375) rotate(0 86.427734375 38.337890625)"><path d="M0 0 C0 0, 0 0, 0 0 M0 0 C0 0, 0 0, 0 0 M-0.49 6.23 C1.07 4.2, 3 1.53, 4.72 0.93 M0.13 6.22 C1.44 4.26, 3.57 1.91, 5.02 0.61 M1.56 11.29 C4 8.97, 6.85 1.94, 12.21 0.42 M-0.35 12.55 C2.55 8.32, 5.78 5.39, 11.38 -0.13 M1.18 16.66 C5.41 13.69, 10.86 4.09, 14.6 2.13 M-0.86 17.98 C4.69 12.46, 11.72 4.65, 14.67 -0.15 M-1.01 22.64 C8.11 16.99, 10.6 11.48, 21.68 -0.09 M-0.27 24.46 C9.13 14, 17.63 5.74, 22.19 -0.83 M-1.92 31.86 C8 21.37, 15.64 13.52, 27.78 2.21 M0.21 31.31 C9.62 20.17, 16.75 9.46, 26.7 -0.55 M1.42 35.86 C8.5 25.61, 21.49 12.07, 33.59 1.41 M0.36 36.42 C7.19 29.12, 15.61 20.16, 32.38 -0.76 M1.06 44.25 C10.08 31.85, 21.09 19.24, 36.14 -0.88 M0.45 42.12 C11.85 27.69, 23.23 15.31, 37.35 -0.49 M-0.94 50.1 C12.8 33.55, 26.99 18.75, 40.95 -0.74 M0.82 48.88 C15.03 32.18, 28.61 14.46, 42.44 -1.04 M-1.02 55.81 C18.56 35.61, 37.93 12.02, 47.65 1.23 M0.03 55.45 C15.21 37.49, 30.16 19.45, 47.51 -0.4 M-0.54 62.24 C12.54 49.03, 23.52 35.53, 54.09 1.01 M-0.81 60.32 C12.3 46.65, 27.04 29.63, 52.29 0.08 M1.75 66.6 C13.92 50.3, 29.42 33.63, 57.97 0.26 M0.1 67.92 C18.92 45.94, 37.88 22.55, 58.69 1.16 M-1.46 71.75 C15.61 51.65, 32.66 35.38, 64.99 -0.49 M0.86 72.28 C16.53 56.43, 31.59 38.29, 63.56 -0.82 M0.24 78.2 C28.19 48.88, 52.6 16.35, 70.44 -0.78 M0.77 77.24 C20.91 55.94, 38.98 33.47, 69.07 -0.55 M6.44 77.85 C32.74 45.94, 60.31 16.57, 75.35 0.94 M6.47 76.6 C33.85 46.98, 60.62 16.44, 73.48 -0.29 M11.61 76.25 C25.86 58.12, 39.57 41.75, 80.09 0.44 M12.39 78.66 C38.22 47.15, 64.8 17.64, 79.49 -0.43 M15.81 77.62 C37.37 55.43, 56.15 33.87, 84.53 0.8 M18.08 77.53 C43.69 46.58, 70.86 16.07, 84.99 -0.06 M22.3 78.53 C35.32 60.32, 49.38 44.91, 89.64 1.56 M22.57 77.16 C44.43 51.39, 67.06 27.21, 89.44 0.48 M29.7 76.99 C41.87 59.43, 58.06 46.67, 97.61 -0.14 M27.15 76.69 C48.43 54.69, 67.04 31.31, 96.65 -0.99 M33.62 77.61 C50.67 53.52, 70.46 34.76, 101.49 -0.46 M33.74 77.98 C50.59 57.77, 69.67 36.44, 101.08 0.98 M38.1 77.43 C53.34 61.67, 71.91 40.01, 105.32 0.25 M39.02 77.74 C60.26 52.4, 82.44 27.46, 106.68 -1.12 M44.57 79.33 C60.07 57.77, 74.24 42.64, 109.74 -1.36 M44.01 77.22 C63.23 56.95, 81.18 35.15, 111.2 -0.3 M48.67 77.43 C70.93 53.14, 94.68 23.57, 115.46 2.15 M49.7 77.94 C70.99 54.13, 92.05 29.4, 116.32 1.11 M55.82 78.88 C77.16 53.82, 99.07 26.43, 120.16 -1.56 M55.15 77.82 C73.19 55.9, 93.65 33.44, 121.27 -0.87 M58.78 77.08 C80.37 54.5, 105.03 27.84, 127.45 0.77 M59.86 78.66 C78.34 55.65, 95.45 34.61, 126.41 -0.15 M65.77 76.73 C86.63 54.09, 104.26 31.21, 134.23 1.83 M64.56 77.55 C87.17 52.97, 109.7 27.24, 133.4 -0.4 M70.14 79.02 C90.75 53.48, 111.05 32.72, 136.45 -1.08 M69.5 78.34 C95.99 48.33, 122.87 17.76, 137.5 0.37 M74.46 78.69 C96.43 54.46, 117.83 31.32, 145.1 -0.98 M75.31 77.04 C96.2 54.1, 115.47 32.04, 142.38 -0.73 M80.17 77.21 C106.66 49.13, 128.19 21.88, 147.96 -0.04 M81.27 77.29 C97.5 60.01, 113.95 40.64, 148.44 -0.01 M87.66 75.86 C102.86 56.23, 119.56 38.53, 153.61 -0.48 M86.14 77.77 C98.7 61.97, 113.18 44.54, 153.62 0.17 M89.95 76.91 C115.68 49.02, 145.04 19.73, 157.16 0.57 M90.47 77.65 C103.8 61.89, 117.76 46.39, 159.73 0.91 M96.79 76.67 C112.83 59.68, 131.78 40.91, 164.3 0.16 M97.42 78.03 C118.02 53.11, 140.23 28.17, 165.22 0.15 M100.27 78.7 C114.32 60.18, 130.79 46.82, 168.94 -1.28 M101.06 77.39 C128.27 47.53, 154.23 16.32, 169.54 0.15 M106.97 78.86 C123.67 58.11, 143.82 36.44, 172.06 2.6 M107.2 76.99 C121.92 63.21, 134.75 46.45, 174.61 0.42 M111.59 78.48 C127.44 64.06, 141.87 45.69, 175.95 8.52 M111.67 78.35 C134.46 52.45, 156.72 26.97, 173.79 6.39 M117.03 77.46 C140.78 50.9, 160.34 25.7, 172.93 15.34 M117.17 76.65 C134.6 58.75, 151.57 38.88, 173.31 13.59 M124.07 79.44 C142.41 55.56, 164.74 33.41, 175.74 17.05 M123.56 78.2 C133.73 65.21, 145.91 51.75, 175.27 18.84 M127.46 76.85 C143.38 60.34, 156.39 45.62, 175.7 26.59 M128.68 77.85 C145.23 58.01, 159.94 39.82, 174.56 24.48 M133.55 76.11 C143.09 66.24, 154.02 54.74, 174.2 33.72 M134.66 78.45 C143.46 65.43, 154.33 54.25, 173.04 32.52 M140.44 78.69 C146.13 69.69, 154.11 58.65, 175.63 38.42 M138.74 78.27 C153.19 61.18, 166.65 47.51, 175.08 38.33 M143.57 78.31 C151.77 69.24, 161.23 58.36, 172.25 44.26 M143.57 78.46 C154.01 66.49, 165.99 53.32, 173.21 44.34 M151.2 78.73 C152.66 71.46, 159.61 67.05, 175.69 48.23 M149.36 77.21 C156.63 69.8, 162.9 62.33, 174.23 50.21 M153.33 79.18 C161.52 71.94, 168.89 63.94, 174.56 53.95 M155.52 77.44 C162.77 68.89, 169.23 60.97, 173.56 56.29 M158.6 79.75 C165.68 74.26, 170.24 65.37, 173.9 61.47 M160.18 78.52 C164.63 72.43, 170.04 64.98, 173.38 61.79 M165.71 78.68 C169.14 73.95, 171.3 70.83, 175.43 68.41 M166.14 78.18 C166.92 75.05, 168.78 73.44, 174.19 68.28 M170.28 77.6 C171.26 77.13, 172.79 75.94, 173.9 73.9 M170.59 77.86 C171.22 77.01, 172.33 76.41, 174.05 74.32" stroke="#15aabf" stroke-width="0.5" fill="none"></path><path d="M1.07 -0.38 C63.15 -0.48, 128.49 1.98, 171.56 0.34 M0.65 0.92 C68.46 -1.86, 136.26 -2.13, 173.17 -0.18 M172.86 -0.28 C170.88 18.13, 170.42 36.41, 170.94 76.8 M173.51 0.93 C173.3 24.17, 172.58 47.79, 172.69 75.97 M171.12 76.82 C132.72 75.69, 92.85 74.24, -0.48 78.37 M172.29 75.83 C128.69 78.1, 85.28 76.46, 0.77 76.64 M-1.07 74.77 C0.73 57.56, 0.32 37.23, -1.99 -0.99 M0.51 76.19 C1.44 61, 0.72 44.19, -0.03 0.57" stroke="#000000" stroke-width="1" fill="none"></path></g><g stroke-linecap="round" transform="translate(113.939453125 223.65234375) rotate(0 86.427734375 38.337890625)"><path d="M1.84 -0.63 C35.25 0.31, 69.43 -1.94, 172.45 0.38 M-0.9 0.85 C48.17 -0.46, 95.24 -0.71, 172.52 -0.4 M173.41 -0.58 C173.14 24.15, 171.38 47.06, 171.25 76.83 M171.95 -0.17 C172.35 27.64, 172.19 53.4, 171.99 77.42 M172.63 75.48 C106.51 74.92, 36.17 77.51, 0.3 75.55 M172.67 76.16 C135.09 75.77, 95.85 74.58, -0.95 76.14 M-0.56 76.54 C-1.87 50.34, 0.07 19.55, 1.18 -0.41 M-0.65 76.84 C-0.89 50.67, -0.68 24.32, 0.78 0.96" stroke="#000000" stroke-width="1" fill="none"></path></g><g stroke-linecap="round" transform="translate(324.666015625 220.703125) rotate(0 86.427734375 38.337890625)"><path d="M0 0 C0 0, 0 0, 0 0 M0 0 C0 0, 0 0, 0 0 M-0.06 5.74 C1.19 4.64, 2.85 3.94, 5.04 0.44 M-0.55 6.18 C1.28 4.48, 2.42 3.23, 4.61 0.26 M-1.25 11.53 C4.34 8.62, 6.01 6.21, 10.82 0.01 M0.14 11.3 C3.83 8.81, 6.74 5, 10.89 -0.52 M0.24 17.45 C4.96 14.81, 5.84 11.14, 16.83 0.47 M-0.93 18.89 C3.45 13.65, 6.66 10.88, 16.2 0.62 M1.67 25.58 C8.14 17.4, 15.9 7.25, 20.29 -0.5 M-0.32 24.93 C6.04 17.58, 11.75 11.71, 21.18 -0.6 M-0.16 29.41 C8.97 18.55, 20.31 7.51, 27.86 -0.43 M0.75 29.99 C10.31 19.35, 21.06 6.23, 27.17 0.37 M0.8 35.18 C6.98 28.1, 15.35 19.18, 31.89 0.86 M0.05 36.22 C8.68 26.4, 18.74 15.26, 31.98 0.83 M0.7 42.85 C14.3 24.57, 30.7 8.6, 36.29 2.16 M-0.25 42.89 C8.27 32.61, 17.27 23.41, 36.19 0.32 M-1.08 47.26 C13.66 33.5, 23.94 22.48, 40.93 1.73 M-0.06 48.3 C14.67 32.18, 27.53 16.14, 41.77 0.17 M1.81 55.69 C13.89 39.55, 26.37 24.63, 47.51 -1.77 M0.61 54 C12.76 38.33, 25.93 24, 48.33 1.07 M0.54 60.81 C10.02 47.48, 21.34 33.96, 51.94 -0.52 M-0.12 60.41 C20.46 36.74, 40.94 13.67, 53.78 0.61 M-1.18 66.25 C17.86 48.48, 32.49 27.63, 58.22 -0.53 M0.03 67.11 C20.84 42.86, 42.96 16.27, 58.52 0.88 M2.09 71.77 C16.66 51.1, 36.51 32.06, 62.79 -0.87 M0.93 72.67 C19.75 51.02, 39.16 28.15, 64.12 -0.02 M-0.04 76.82 C14.65 60.71, 30.74 46.72, 68.44 -0.74 M0.86 76.93 C27.47 48.75, 54.4 19.25, 69.52 -0.35 M5.92 78.21 C30.95 47.66, 57.43 17.52, 72.65 1.39 M6.53 77.32 C24.57 56.35, 43.33 34.98, 73.72 -1.23 M11.37 76.05 C26.18 56.48, 43.55 39.48, 77.49 0.66 M11.39 77.51 C28.47 59.21, 43.79 39.96, 79.95 0.96 M16.47 78.48 C44.31 49.71, 67.23 20.62, 86 -1.32 M16.8 76.84 C43.85 46.08, 71.39 14.97, 84.37 0.13 M24.09 79.17 C47.76 48.34, 75.02 16.98, 88.03 0.42 M22.33 78.46 C46.99 49.81, 70.69 23.18, 90.25 0.04 M28.19 78.1 C50.93 53.97, 70.19 26.34, 96.65 -0.92 M28.38 76.85 C43.44 60.75, 57.52 43.3, 94.68 -0.13 M31.68 78.51 C56.65 49.88, 83.91 17.19, 102 0.98 M32.42 77.44 C58.5 47.68, 84.88 17.35, 100.72 -0.23 M38.15 76.5 C51.16 62, 65.99 44.57, 107.69 -1.62 M39.02 78.87 C54.37 60.85, 68.29 42.29, 106.12 0.45 M45 78.11 C69.23 47.33, 96.11 18.83, 112.67 -1.55 M43.28 76.8 C62.18 55.27, 82.74 32.55, 111.5 0.7 M48.65 76.55 C72.54 51.45, 94.18 25.83, 114.91 0.79 M48.32 77.79 C64.81 58.8, 82.93 39.22, 116.36 -0.27 M56.22 77.69 C75.75 54.05, 94.8 30.52, 120.62 -1.35 M55.32 77.53 C72.43 58.23, 90.91 36.45, 122.58 -1 M59.39 77.07 C87.47 49.12, 111.15 14.9, 125.34 -0.03 M59.71 78.45 C78.79 53.68, 99.64 31.07, 127.86 0 M66.82 76.66 C85.63 52.97, 104.79 30.11, 133.74 1.08 M65.84 77.27 C89 49.87, 113.21 21.8, 131.78 0.55 M70 77.81 C89.16 58.87, 105.22 37.72, 137.39 -0.49 M69.16 78.58 C93.83 49.97, 118.16 22.61, 137.96 0.42 M75.61 78.09 C94.21 58.12, 108.2 37.34, 143.23 -1.08 M74.95 78.34 C98.1 52.72, 120.4 25.58, 142.77 0.84 M79.43 76.2 C95.81 58.62, 116.63 38.47, 147.4 1.94 M80.46 77.55 C105.89 50.26, 129.51 20.21, 147.51 0.1 M86.69 76.78 C102.38 57.1, 119.22 37.13, 155.62 -0.94 M85.63 77.69 C111.4 49.02, 135.11 21.25, 153.07 -0.95 M89.95 79.37 C114.68 50.61, 139.28 24.16, 157.05 1.48 M91.25 78.4 C105.93 60.68, 120.39 43.47, 158.18 0.76 M97.48 79.19 C121.57 50.47, 143.51 22.63, 164.72 -1.96 M97.68 76.95 C120.35 52.17, 142.19 26.47, 164.04 -0.02 M103.14 76.13 C119.59 58.69, 138.37 38, 169.34 0.04 M101.02 77.84 C127.73 46.25, 155.55 15.89, 168.53 0.81 M106.73 79.48 C122.41 57.88, 139.49 40.73, 174.38 -0.36 M107.77 78.38 C132.31 50.76, 154.85 22.94, 173.57 1.64 M111.9 76.97 C135.75 52.99, 156.64 28.58, 174.64 5.99 M113.09 78.21 C133.97 52.98, 155.67 29.72, 174 6.09 M118.48 79.5 C136.83 55.53, 155.36 34.83, 173.17 12.83 M117.39 76.91 C132.61 60.43, 145.69 45.6, 174.83 13.2 M124.41 78.09 C135.28 61.62, 149.2 47.77, 175.88 19.12 M122.63 77.53 C137.13 61.3, 149.9 46.62, 174.14 18.81 M130.09 76.76 C138.12 65.32, 151.56 54.23, 174.04 24.69 M128.89 78.14 C140.63 64.37, 150.95 52.1, 173.9 25.9 M132.22 77.36 C149.01 59.83, 161.37 44.8, 171.93 31.85 M134.66 77.45 C146.97 64.62, 159.56 49.29, 173.95 30.81 M140.23 76.49 C153.12 59.85, 167.88 47.18, 176.07 38.52 M139.45 78.3 C150.04 64.39, 160.54 53.24, 173.51 37.17 M146.13 78.34 C150.68 67.46, 159.1 61.25, 172.33 43.34 M144.03 77.29 C150.51 70.13, 158.79 61.79, 174.63 43.61 M148.23 76.35 C158.59 66.71, 167.37 57.04, 173.66 51.32 M148.45 79.05 C159.39 67.42, 169.11 56.27, 174.23 50.12 M156.29 78.28 C159.58 71.25, 164.17 67.09, 173.97 54.69 M155.46 78.04 C161.5 70.16, 166.92 63.73, 174.29 55.63 M160.7 79.42 C164.09 71.66, 172.04 67.57, 171.85 62.53 M160.07 78.43 C165.1 71.05, 169.62 65.13, 173.84 62.26 M164.68 76.68 C169.16 74.13, 171.46 71.64, 175.17 69.22 M165.54 78.12 C167.37 74.67, 169.95 71.9, 174.39 67.46 M170.86 78.25 C171.44 76.6, 173.33 75.54, 173.67 74.49 M170.81 77.92 C171.42 77.09, 171.95 76.76, 173.9 74.36" stroke="#15aabf" stroke-width="0.5" fill="none"></path><path d="M-0.63 0.61 C48.7 -1.44, 93.91 -2, 173.23 -0.51 M0.85 0.73 C50.9 1.91, 101.63 1.21, 172.46 0.12 M172.27 0.43 C173.65 20.19, 172.62 41.42, 173.01 77.68 M172.68 -0.05 C173.97 18.29, 172.9 36.15, 173.6 77.59 M171.66 77.93 C102.36 75.01, 36.35 76.78, -1.13 75.13 M172.34 77.37 C104.4 76.27, 34.5 75.4, -0.54 77.28 M-0.13 75.13 C1.51 50.87, -1.63 25.46, -0.41 0.79 M0.16 76.11 C-0.7 50.11, -1.02 25.04, 0.96 -0.83" stroke="#000000" stroke-width="1" fill="none"></path></g><g stroke-linecap="round" transform="translate(530.162109375 220.42578125) rotate(0 86.427734375 38.337890625)"><path d="M0 0 C0 0, 0 0, 0 0 M0 0 C0 0, 0 0, 0 0 M0.48 6.93 C0.72 4.74, 2.06 3.24, 4.63 0 M-0.29 6.46 C1.62 4.05, 3.17 2.33, 5.17 0.09 M1.39 12.53 C1.7 9.06, 5.76 3.88, 11.24 -1.24 M-0.06 11.45 C3.17 10.09, 4.22 6.02, 10.19 0.25 M0.1 18.34 C4.2 14.58, 8.83 7, 16.93 -1.02 M-0.98 19.08 C4.5 11.28, 10.59 5.09, 15.07 0.8 M1.97 22.29 C6.8 14.29, 14.41 4.84, 21.83 0.83 M1.16 24.86 C8.55 14.72, 16.11 5.36, 21.71 -0.81 M-0.72 29.35 C11.31 19.01, 18.44 7.87, 26.2 1.06 M-0.47 31.47 C5.86 24.09, 10.47 16.95, 25.39 -0.5 M-1.42 37.34 C13.03 23.19, 21.55 12.28, 33.46 -1.19 M0.47 35.9 C9.42 23.76, 21.51 12.37, 32.22 -0.79 M2.1 42.19 C12.3 27.54, 22.77 13.72, 36.25 0.22 M0.97 43.12 C10.31 32.51, 19.66 20.94, 37.25 0.85 M0.95 47.08 C10.41 35.82, 23.85 23.11, 40.79 -0.74 M0.09 49.88 C12.15 34.18, 25.83 20.26, 43.13 -0.46 M-1.18 56.01 C9.73 42.74, 20.64 30.71, 48.76 -1.33 M1.01 55.05 C19.85 32.77, 37.69 11.83, 48.34 0.59 M1.86 62.73 C9.83 47.16, 20.18 35.44, 53.66 -1.25 M-0.81 61.17 C18.67 40.26, 35.45 18.54, 53.81 -0.99 M-1.63 68.35 C18.02 46.19, 41.48 22.69, 58.71 -1.68 M0.45 66.73 C16.24 48.26, 33.56 28.35, 57.18 1.13 M0.02 74.45 C14.56 56.64, 25.53 39.86, 65.2 -0.47 M0.41 72.04 C25.35 44.42, 48.09 16.84, 63.45 0.1 M0.26 78.71 C20.21 57.17, 35.53 36.74, 70.39 0.77 M1.26 77.49 C28.58 48.76, 54.15 17.51, 69.16 -0.48 M6.06 76.53 C31.02 52.38, 54.81 23.03, 75.87 1.53 M7.81 77.87 C20.69 60.67, 36.27 43.91, 75.1 -1.07 M11.91 78.96 C25.45 62.86, 40.79 44.86, 77.42 -0.7 M11.82 77.02 C31.25 55.17, 52.02 30.29, 78.49 -0.53 M18.71 77.51 C32.18 60.89, 47.33 40.41, 85.43 -1.61 M17.13 77.27 C39.75 51.65, 62.14 26.76, 85.65 -0.69 M23.66 77.55 C46.54 50.23, 69.23 24.4, 90.73 -1.13 M21.96 77.57 C49.77 46.69, 76.33 16.37, 90.23 -0.66 M28.7 79.16 C45.07 56.59, 63.99 39.77, 96.97 1.4 M27.6 77.02 C43.49 59.38, 56.77 42.15, 95.84 0.67 M34.33 78.04 C53.85 55.16, 70.36 35.44, 102.54 0.13 M32.54 78.45 C48.46 62.13, 61.01 45.91, 100.29 0.17 M39.37 79.12 C51.03 59.85, 67.71 45.49, 104.88 -0.43 M38.59 78.75 C58 55.56, 78.5 33.73, 106.24 0.11 M42.07 77.67 C67.24 50.84, 91.41 24.16, 110.4 -0.56 M44.27 78.65 C59.07 60.08, 75.65 42.82, 111.42 -0.36 M49.32 76.48 C71.06 56.72, 88.43 32.43, 118.2 0.33 M48.31 78.53 C75.28 47.81, 101.74 16.52, 116.62 1.15 M56.32 79.39 C76.54 51.64, 96.72 27.99, 121.18 0.82 M53.69 76.78 C77.78 51.38, 100.44 25.53, 121.2 0.07 M60.51 76.27 C75.83 58.58, 96.6 38.12, 127.26 -1.43 M59.81 77.32 C76.98 56.53, 95.58 36.43, 126.55 0.7 M65.87 75.81 C82.69 57.6, 102.99 33.93, 131.05 -0.02 M65.19 77.15 C89.07 51.74, 112.52 25.07, 132.09 0.47 M68.86 78.46 C88.8 57.35, 102.79 41.34, 135.74 1.08 M69.65 77.98 C90.02 55.63, 109.62 31.01, 137.49 -0.43 M74.77 77.26 C103.6 46, 127.56 17.68, 141.48 0.34 M75 77.7 C93.93 57.51, 111.75 35.18, 143.35 0.47 M79.61 78.72 C104.96 48.42, 134.23 19.47, 147.27 -0.38 M81.24 78.04 C102.47 50.9, 125.67 26, 147.39 -0.49 M86.44 75.72 C106.24 55.35, 128.02 30.22, 155.29 0.99 M87.21 78.03 C105.17 57.79, 121.97 36.5, 153.12 0.4 M91.3 76.37 C116.36 47.29, 145.12 16.25, 156.82 -0.37 M90.82 77.67 C112.14 55.59, 132.76 30.54, 158.04 -0.12 M95.56 76.88 C119.94 49.41, 144.55 20.59, 164.58 0.71 M97.73 77.4 C115.48 56.04, 132.12 35.26, 164.35 -0.8 M103.8 78.45 C126.17 47.39, 152.74 21.5, 170.64 0.23 M101.5 77.73 C128.32 48.17, 154.27 17.3, 169.1 -0.27 M108.17 76.12 C132.25 52.31, 154.23 24.83, 173.46 -0.54 M108.32 76.73 C132.04 49.7, 157.26 20.33, 173.56 2 M114.28 79.68 C137.08 51.05, 160.6 23.73, 172.42 5.03 M113.2 77.68 C126.29 60.21, 141.13 44.23, 174.13 6.55 M117.57 78.51 C140.05 51.84, 161.99 25.67, 172.8 12.48 M118.61 76.58 C130.54 63.62, 143.91 47.65, 173.53 14.14 M121.21 78.47 C138.39 60.77, 154.08 41.97, 172.36 19 M122.71 77.7 C141.63 54.51, 161.41 32.91, 173.77 19.18 M128.43 78.78 C138.6 64.43, 153.6 49.7, 175.82 27.03 M128.03 77.18 C141.29 63.38, 153.79 49.23, 174.93 25.98 M132.42 76.9 C141.92 67.12, 152.75 57.59, 174.59 29.82 M133.65 78.58 C150.38 60.29, 165.22 42.45, 173.14 31.1 M140.69 77.38 C148.25 68.38, 156.54 61.38, 175.89 36.64 M139.89 78.41 C148.41 66.89, 158.98 55.19, 174.11 37.11 M144.99 76.76 C154.76 67.33, 163.55 54.22, 171.95 41.85 M144.5 77.78 C153.12 67.39, 162.74 56.38, 174.56 44.47 M148.96 77.18 C157.44 72.79, 161.64 63.55, 175.68 50.53 M148.67 78.58 C154.69 70.28, 160.2 64.02, 174.26 49.76 M153.35 79.51 C158.94 74.01, 164.16 66.39, 174.6 55.4 M154.55 77.42 C160.18 71.97, 165.26 65.51, 174.23 55.35 M161.14 76.49 C164.02 74.25, 169.59 65.7, 174.52 62.37 M160.67 77.36 C162.58 74.42, 166.29 69.97, 174.76 61.6 M165.38 78.11 C169.08 74.07, 173.27 70.5, 173.21 67.79 M165.86 78.08 C167.67 75.39, 170.74 71.85, 174.62 68.45 M170.58 77.96 C171.56 77.03, 172.15 76.21, 174.18 74.54 M170.48 78.16 C171.8 76.86, 173.3 75.03, 173.87 74.4" stroke="#15aabf" stroke-width="0.5" fill="none"></path><path d="M1.71 -0.7 C54.27 2.12, 107.79 0.8, 173.83 1.46 M-0.54 -0.69 C35.63 0.39, 68.51 -0.6, 173.16 -0.22 M172.78 0.12 C173.11 26.57, 171.54 50.76, 173.9 76.6 M173.82 -0.45 C172.91 25.92, 173.09 50.98, 172.25 77.3 M171.25 75.39 C125.96 77.55, 77.41 77.89, -0.8 78.1 M172.75 76.52 C125.82 76.32, 78.96 77.47, -0.71 76.32 M0.54 76.11 C-0.23 47.05, -0.62 18.61, -1.75 -0.77 M-0.1 76.5 C-0.38 61.09, 1.14 43.87, 0.15 -0.71" stroke="#000000" stroke-width="1" fill="none"></path></g><g stroke-linecap="round" transform="translate(10 330.150390625) rotate(0 86.427734375 38.337890625)"><path d="M0.98 1.57 C33.29 -0.54, 68.09 0.39, 173.59 -2 M0.89 -0.2 C62.78 -1.94, 126.49 -1.34, 172.32 0.42 M173.27 1.09 C172.72 21.83, 171.04 48.29, 171.22 77.66 M173.35 -0.82 C173.32 29.06, 173.29 56.97, 171.92 76.55 M171.6 75.9 C125.34 78.25, 75.26 75.98, 1.88 75.04 M173.58 77.19 C108.64 75.62, 44.46 77.28, -0.13 77.52 M-1.93 78.51 C-0.57 50.47, 0.51 26.73, 0.61 -0.9 M0.41 77.31 C-0.55 58.59, -0.85 41.95, 0.31 0.92" stroke="#000000" stroke-width="1" fill="none"></path></g><g stroke-linecap="round" transform="translate(220.97265625 326.951171875) rotate(0 86.427734375 38.337890625)"><path d="M0 0 C0 0, 0 0, 0 0 M0 0 C0 0, 0 0, 0 0 M-0.94 6.42 C0.34 5.78, 2.36 3.28, 4.22 -0.26 M-0.42 6.55 C1.36 4.39, 2.3 2.8, 5.01 0.74 M-0.76 13.52 C2.1 8.74, 4.26 4.66, 9.52 0.92 M-0.02 12.73 C3.47 7.4, 7.7 2.89, 10.85 -0.65 M-0.95 18.48 C5.37 13.02, 12.51 4.58, 16.37 0.18 M0.47 17.64 C4.4 13.16, 8.31 8.42, 16.61 0.75 M1.58 24.09 C7.37 18.07, 13.88 7.6, 20.37 -0.02 M0.13 23.43 C6.15 18.71, 11.36 12.65, 20.43 -0.48 M0.9 29.32 C8.67 16.74, 21.13 8.8, 25.86 -0.47 M0.76 30.35 C9.42 19.77, 20.89 7.33, 25.31 -0.37 M1.65 37.33 C8.19 26.25, 17.36 16.03, 30.31 1.7 M-0.97 36.27 C7.91 28.04, 15.44 17.52, 31.76 -0.84 M-0.31 41.25 C9.29 33.24, 15.75 24.86, 37.71 -1.49 M0.02 42.55 C14.23 27.18, 26.67 11.62, 36.15 -0.35 M-1.01 49.54 C16.22 32.63, 29.87 13.26, 42.6 0.15 M0.83 49.74 C8.05 39.47, 18.59 28.65, 43.49 -0.53 M-0.83 55.85 C13.51 37.71, 30.84 21.77, 47.8 0.13 M0.72 53.73 C13.42 37.88, 26.93 22.87, 47.79 -0.68 M1.06 60.2 C21.5 38.09, 37.27 17.59, 52.45 0.45 M-0.58 61.24 C11.96 48.59, 22.77 34.16, 52.86 -0.36 M-1.82 66.77 C17.89 46.77, 37.49 23.9, 57.7 0.67 M-0.69 67.96 C14.45 50.58, 28.08 34.12, 58.57 0.04 M1.67 73.36 C15.53 58.18, 26.17 43.19, 62.77 -0.93 M0.98 72.27 C17.36 53.8, 34.48 33.18, 63.76 0.73 M2.49 79.19 C20.87 54.21, 39.76 32.27, 70.65 1.75 M2.19 77.4 C21.84 54.92, 42 30.69, 68.46 0.01 M6.89 78.83 C25.59 54.13, 45.66 34.86, 76.15 -0.23 M5.94 77.63 C25.75 57.4, 42.52 35.81, 74.76 -0.37 M10.16 76.33 C34.48 51.35, 57.02 21.94, 79.59 -1.71 M11.01 78.77 C31.81 55.34, 53.4 31.98, 79.09 0.3 M19.26 78.3 C29.39 61.58, 42.59 46.85, 86.87 1.64 M17.18 77.52 C42.21 50.25, 64.28 22.68, 85.06 -0.93 M22.53 79.58 C41.74 55.35, 58.12 34.89, 91.14 -1.48 M21.67 77.48 C41.05 55.74, 60.23 35.69, 89.75 0.82 M29.74 76.29 C44.33 55.57, 64.68 33.2, 96.9 -0.94 M27.92 76.51 C54.71 46.98, 80.91 16.34, 96.53 -0.37 M33.82 79.08 C58.46 49.15, 81.88 20.41, 101.62 -0.01 M33.91 78.24 C49.35 59.57, 65.17 39.96, 101.38 0.31 M38.23 78.86 C57.46 55.83, 74.53 36.94, 107.89 -2.27 M38.33 78.22 C59.01 52.88, 79.17 27.48, 105.69 -0.27 M41.94 76.28 C61.73 55.2, 83.48 30.63, 113.03 1.56 M44.13 77.6 C71.54 45.52, 97.4 14.83, 110.59 0.36 M48.29 79.09 C64.44 59.53, 78.54 44.72, 116.54 -0.56 M48.19 78.86 C71.41 52.43, 93.77 25.81, 117.08 0.39 M52.48 75.97 C74.98 52.87, 96.73 28.61, 121.04 -0.59 M53.4 77.95 C78.14 50.45, 101.2 25.37, 121.64 -0.58 M59.19 77.68 C76.24 59.35, 93.96 42.33, 125.17 -1 M59 77.75 C85.13 50.06, 109.21 21.09, 127.83 0.21 M66.71 78.2 C80.67 60.17, 95.07 39.81, 131.04 -0.98 M65.41 77.52 C80.61 60.74, 96.26 41.72, 132.44 0.77 M68.57 79.85 C87.39 58, 105.82 34.91, 137.86 0.8 M70.53 78.3 C95.78 47.82, 120.29 18.11, 137.79 -0.11 M73.62 78.38 C87.67 62.24, 105.07 46.44, 142.08 -0.81 M76.54 78.38 C90.84 60.24, 106.67 43.75, 142.56 0.52 M79.73 76.15 C103.09 49.79, 128.4 23.84, 147.01 -0.21 M80.23 78.75 C99.05 56.44, 117.26 36.06, 148.1 1.24 M85.85 79.2 C111.53 49.07, 139.67 16.2, 154.92 0.02 M85.8 78.47 C103.41 57.18, 121.6 37.44, 153.23 -0.34 M89.67 78.44 C115.46 48.31, 143.84 18.28, 160.71 -1.74 M91.2 78.19 C116.82 49.65, 140.33 20.51, 158.57 -0.11 M95.74 78.7 C116.45 54.18, 135.57 35.63, 164 -1.05 M96.89 77.54 C114.44 57.31, 133.75 36.5, 165.33 -0.02 M101.09 79.9 C124.68 52.25, 144.75 29.34, 170.75 1.77 M102.21 78.57 C123.46 52.7, 146.8 27.16, 169.66 -0.67 M107.34 78.18 C129.08 52.13, 154.74 23.78, 172.11 0.21 M108.14 77.2 C131.3 50.17, 154.03 23.65, 174.09 1.65 M114.35 79.01 C134.58 49.89, 161.08 21.75, 174.68 6.01 M111.66 78.66 C130.02 58.46, 148.75 36.6, 174.58 7.67 M116.34 78.3 C131.43 61.45, 143.31 47.43, 173.21 12.92 M118.53 76.91 C141 51.06, 162.57 26.41, 173.84 13.24 M123.51 79.57 C139.22 61.59, 151.27 42.77, 172.97 17.67 M123.63 78.09 C135.03 64.53, 145.83 50.75, 174.42 18.59 M130.16 79.01 C142.09 59.7, 158.53 46.01, 175.97 23.85 M129.73 77.96 C141.16 62.3, 155.65 46.52, 173.6 24.52 M132.33 78.69 C147.95 59.73, 162.85 43.93, 172.41 31.74 M133.84 77.33 C142.99 66.12, 154.12 54.2, 173.54 32.56 M139.9 75.58 C153.01 60.01, 167.54 48.17, 173.59 35.7 M140.02 77.5 C148.46 66.15, 159.66 54.17, 174.89 36.67 M146.24 78.79 C154.5 69.57, 159.92 59.13, 172.83 45.55 M143.68 77.69 C154.96 66.09, 164.72 54, 174.35 42.93 M147.67 79.34 C160.48 66.8, 165.92 55.68, 172.93 48.44 M149.73 77.25 C155.07 72.08, 160.61 63.77, 174.87 49.72 M156.37 79.6 C162.5 72.23, 166.35 64.04, 175.8 53.98 M154.19 77.32 C161.67 69.09, 169.73 59.89, 173.94 55.17 M161.26 78.67 C165.79 73.57, 168.39 68.56, 173.91 64.12 M159.78 78.55 C165.69 72.89, 169.21 67.22, 173.72 61.32 M166.86 78.03 C169.43 74.13, 171.55 70.68, 174.85 67 M165.91 77.41 C167.8 74.27, 170.65 71.48, 174.5 67.85 M170.51 78.45 C171.56 77.37, 171.59 76.52, 173.44 74.7 M170.41 78.27 C171.45 77.23, 172.49 76.04, 173.72 74.15" stroke="#15aabf" stroke-width="0.5" fill="none"></path><path d="M1.57 -1.4 C55.67 -2.14, 111.55 -0.11, 170.86 1.34 M-0.2 -0.66 C59.52 -1.93, 119.98 -2.07, 173.27 0.06 M173.95 0.07 C170.58 19.28, 173.55 40.14, 173.84 78.07 M172.04 0.95 C173.05 19.04, 172.61 35.3, 172.73 76.5 M172.08 77.96 C107.69 75.61, 39.89 77.48, -1.63 78.06 M173.37 76.24 C133.6 77.09, 96.96 77.8, 0.84 76.89 M1.84 76.63 C-1.76 49.49, -0.86 20.85, -0.9 -1.36 M0.63 76.29 C0.04 51.37, 1.17 27.76, 0.92 0.09" stroke="#000000" stroke-width="1" fill="none"></path></g><g stroke-linecap="round" transform="translate(426.52734375 327.158203125) rotate(0 86.427734375 38.337890625)"><path d="M0 0 C0 0, 0 0, 0 0 M0 0 C0 0, 0 0, 0 0 M-0.24 6 C2.43 4.59, 3.23 0.87, 4.36 0.21 M-0.11 6.55 C1.03 4.19, 2.74 2.77, 5.37 0.22 M1.61 11.22 C3.2 7.03, 5.48 3.75, 11.58 0.87 M0.82 11.71 C3.59 7.85, 7.19 3.53, 10.01 0.45 M-0.09 18.2 C5.17 14.91, 7.45 9.62, 15.47 -0.47 M-0.93 18.97 C4.98 12.17, 10.63 6.28, 16.04 0.44 M0.27 24.53 C7.06 18.3, 9.37 10.94, 21.31 -1.06 M-0.39 24.78 C7.85 16.79, 14.77 7.33, 20.85 0.86 M-1.16 28.67 C4.71 23.16, 15.19 14.89, 25.48 1.96 M-0.12 30.02 C10.39 20.28, 19.03 7.46, 25.59 0.11 M0.2 36.05 C7.44 26.73, 15.57 16.79, 33.7 -0.92 M-0.86 36.96 C12.18 22.9, 22.97 10, 31.15 -0.93 M-1.13 43.92 C12.95 27.59, 26.68 13.64, 35.14 1.5 M0.17 42.95 C8.12 32.92, 15.86 23.43, 36.27 0.78 M0.5 50.53 C15.97 31.9, 29.03 14.28, 42.8 -1.94 M0.7 48.29 C14.88 33.24, 28.47 17.02, 42.12 0 M1.56 52.75 C12.8 41.31, 26.27 26.73, 47.42 0.06 M-0.56 54.46 C18.24 32.3, 37.93 11.27, 46.61 0.82 M-0.75 62.9 C11.71 44.9, 25.7 31.29, 53.77 -1.85 M0.29 61.79 C19.98 39.51, 37.81 17.11, 52.96 0.15 M-0.84 66.42 C21.85 43.73, 41.6 20.64, 58.62 -0.78 M0.35 67.67 C20.08 43.72, 40.64 21.76, 57.99 -0.68 M0.5 74.99 C21.43 48.05, 42.49 24.43, 63.06 -0.73 M-0.59 72.4 C16.54 53.64, 31.54 36.59, 64.72 -0.36 M2.5 78.11 C17.79 56.46, 36.11 37.54, 70.37 0.27 M0.71 77.55 C19.48 56.28, 36.49 36.72, 68.63 -0.03 M8.17 76.78 C21.53 59.18, 40.33 41.94, 74.43 -0.95 M6.97 78.16 C24.21 58.15, 40.13 39.45, 74.29 0.25 M10.3 77.38 C37.13 48.52, 59.54 21.93, 77.57 0.17 M12.74 77.47 C33.9 55.04, 55.04 29.87, 79.58 -0.86 M18.31 76.51 C44.08 44.58, 71.87 16.92, 86.96 0.8 M17.53 78.32 C38.39 53.04, 58.87 30.41, 84.39 -0.55 M24.21 78.36 C38.79 56.08, 57.1 38.49, 88.46 -0.41 M22.12 77.31 C37.68 60.16, 54.9 41.55, 90.76 -0.15 M26.97 75.61 C53.88 46.68, 79.12 18.07, 95.04 1.53 M27.18 78.31 C54.94 47.27, 81.62 16.62, 95.61 0.33 M34.38 78.3 C50.62 56.32, 68.04 37.39, 100.6 -1.14 M33.54 78.06 C56.17 51.15, 77.79 26.09, 100.92 -0.2 M38.78 79.44 C63.52 47.66, 92.32 19.59, 104.38 -0.09 M38.15 78.45 C63.84 46.52, 89.58 16.19, 106.38 -0.36 M42.25 76.14 C69.52 49.41, 93.29 22.31, 112.84 2.01 M43.57 78.35 C60.92 55.74, 79.71 34.41, 111.64 -0.7 M49.68 78.75 C71.54 50.45, 98.05 24.38, 115.34 1.08 M49.45 77.44 C62.9 61.54, 76.2 47.36, 116.29 0.56 M52.59 76.49 C71.85 57.13, 89.93 37.09, 121.35 0.76 M54.58 78.47 C72.56 57.19, 93.01 33.95, 121.36 -0.63 M58.93 78.29 C74.57 62.24, 91.49 41, 125.56 1.58 M59.01 78.89 C75.31 60.55, 90.29 42.89, 126.77 -0.35 M65.49 77.68 C85.04 53.23, 102.34 30.34, 131.62 -1.48 M64.81 78.36 C90.51 49.86, 113.97 20.48, 133.37 -0.36 M71.77 77.69 C94.43 51.16, 115.94 24.32, 138.02 1.93 M70.22 78.33 C91.79 50.97, 114.08 26.48, 137.12 -0.6 M76.33 75.69 C97.55 55.36, 119.11 28.64, 142.45 -1.62 M76.34 77.62 C94.56 55.93, 114.38 32.83, 143.79 0.41 M78.73 76.3 C95.19 60.26, 112.1 41.17, 147.69 -0.44 M81.33 77.95 C94.2 61.62, 109.09 44.35, 149.13 1.17 M87.83 76.23 C105.27 58.32, 119.94 39.18, 153.95 -0.88 M87.09 77.52 C110.43 50.49, 135.24 21.74, 153.59 0.66 M91.69 77.16 C115.94 51.86, 140.22 23.17, 156.82 1.59 M91.44 78.58 C110.44 55.42, 128.87 34.08, 158.45 0.02 M97.98 78.65 C117.65 53.34, 143.33 25.46, 163.55 -0.79 M96.82 76.96 C117.2 55.43, 136.97 33.08, 164.57 0 M103.81 78.98 C117.15 59.02, 135.27 41.62, 170.99 0.84 M102.48 77.7 C127.6 49.39, 153.06 19.91, 168.55 0.63 M108.13 76.03 C124.88 59.85, 139.32 37.65, 172.65 2.31 M107.15 78.53 C129.43 51.5, 152.31 25.11, 174.09 2.21 M113.59 76.17 C132.15 55, 151.7 31.71, 173.2 6.59 M113.24 77.48 C126.01 64.31, 137.2 48.72, 174.86 6.16 M118.92 79.11 C137.86 54.25, 159.65 27.44, 173.45 15.32 M117.52 78.43 C135.98 55.92, 155.7 33.88, 173.77 13.28 M124.81 78.81 C137.5 60.24, 149.43 45.35, 172.95 17.52 M123.33 78.71 C142.6 55.21, 161.66 32.77, 173.87 19.11 M130.29 76.32 C136.93 67.12, 149.2 56.58, 172.48 25.2 M129.24 76.57 C140.71 63.59, 152.12 48.83, 173.14 26.23 M134.59 76.69 C145.15 62.89, 158.86 49.46, 173.71 30.98 M133.24 76.86 C147.2 62.33, 160.46 47.07, 174.52 32.6 M137.53 77.8 C147.08 67.56, 160.41 53.85, 172.41 37.18 M139.44 76.48 C149.61 65.98, 159.1 54.97, 173.38 37.3 M145.36 79.28 C153.04 67.73, 159.49 59.99, 175.61 45.02 M144.26 78.04 C155.99 64.65, 167.18 52.96, 172.99 44.45 M150.54 80.11 C154.27 69.94, 159.41 63.39, 173.25 48.16 M148.45 78.11 C157.98 68.48, 164.41 60.18, 174.53 49.4 M156.84 79.73 C161.67 71.19, 165.7 65.98, 172.13 57.65 M154.56 77.03 C160.43 71.41, 165.35 64.92, 173.32 56.39 M160.53 79.23 C166.39 70.71, 172.32 65.8, 175.61 63.49 M160.41 78.79 C164.05 73.27, 167.66 69.88, 172.81 62.82 M165.93 78.48 C167.89 74.78, 170.29 72.88, 173.24 67.84 M165.31 77.43 C167.9 74.45, 170.86 71.45, 174.09 67.36 M170.98 78.35 C171.87 76.36, 172.97 74.99, 174.28 74.22 M170.8 78.02 C171.98 76.84, 173 75.28, 173.73 74.31" stroke="#15aabf" stroke-width="0.5" fill="none"></path><path d="M-1.4 0.73 C63.27 0.31, 129.85 -3.35, 174.2 0.93 M-0.66 -0.34 C67.41 0.61, 135.08 0.77, 172.92 -0.28 M172.93 -1.65 C171.41 18.02, 171.38 34.38, 174.25 75.4 M173.81 0.72 C174.16 18.01, 172.31 35.31, 172.68 77.47 M174.14 77.04 C108.88 74.1, 46.76 74.38, 1.38 75.11 M172.42 75.73 C121.21 78.27, 71.11 78.4, 0.21 77.36 M-0.05 75.11 C1.77 50.99, 1.35 25.71, -1.36 0.42 M-0.39 76.36 C-1.01 58.06, 0 38.75, 0.09 -0.64" stroke="#000000" stroke-width="1" fill="none"></path></g><g stroke-linecap="round" transform="translate(634.478515625 324.955078125) rotate(0 86.427734375 38.337890625)"><path d="M0 0 C0 0, 0 0, 0 0 M0 0 C0 0, 0 0, 0 0 M0.22 6.65 C1.27 3.74, 3.43 2.61, 4.87 -0.34 M-0.19 6.8 C1.55 4.23, 3.35 2.27, 4.84 0.25 M-1.04 11.08 C4.23 7.56, 5.87 6.01, 12.14 -0.29 M0.65 12.13 C2.31 8.69, 5.2 6.23, 11.27 0.01 M-1.1 17.75 C5.32 11.91, 8.48 8.3, 15.34 -0.05 M0.54 18.08 C2.91 14.26, 7.98 10.62, 15.62 -0.03 M0.54 25.41 C6.85 17.32, 10.06 12.85, 21.01 0.92 M-0.5 23.85 C8.26 14.67, 14.8 6.74, 20.34 -0.04 M1.83 29.7 C9.2 22.81, 17.68 11.35, 26.62 -1.67 M0.43 30 C10.35 17.56, 21.25 7.17, 27.2 0.83 M-0.13 38.6 C9.34 23.75, 18.98 14.52, 30.59 -0.65 M0.62 37.15 C7.48 26.5, 16.21 18.2, 31.11 -0.35 M-0.54 41.51 C7.09 33.03, 18.41 22.39, 38.35 -0.2 M-0.43 41.61 C14.17 25.81, 27.94 10.2, 36.56 1.18 M-1.95 50.7 C17.08 30.72, 33.67 11.72, 42.41 1.14 M0.52 49.18 C11.01 35.46, 22.06 23.3, 42.49 -0.73 M1.19 55.12 C16.4 35.75, 30.31 19.37, 48.02 -0.28 M0.63 55.21 C18.14 33.53, 37.56 13.72, 46.55 0.35 M0.16 61.57 C19.94 35.27, 38.95 11.96, 53.3 -0.2 M-0.72 60.15 C20.16 38.68, 39.23 16.86, 53.92 0.82 M-0.55 68.56 C13.68 47.72, 30.35 29.11, 58.84 -1.23 M0.24 67.68 C20 43.73, 41.82 20.83, 57.67 0.54 M1.65 71.65 C14.12 56.38, 26.04 44.89, 63.81 0.17 M-0.73 72.39 C16.71 54.07, 33.5 35.13, 63.5 0.18 M1.66 79.39 C18.95 58.26, 40.68 33.84, 67.66 -1.07 M0.99 77.99 C16.62 61.15, 32.77 41.68, 68.09 0.78 M6.19 79.12 C22.64 60.38, 36.81 43.24, 74.15 -1.61 M7.1 77.49 C26.41 53.66, 44.9 30.9, 73.95 -0.95 M11.49 79.2 C38.19 50.9, 60.42 20.55, 81.05 -0.5 M12.73 77.68 C35.53 51.02, 58.13 23.97, 79.64 0.93 M17.98 78.04 C38.37 49.42, 60.59 26.15, 84.22 -2.1 M17.83 76.48 C39.01 54.51, 60.34 29, 84.68 -1.04 M23.92 77.77 C41.04 56.8, 61.76 32.38, 91.25 1.09 M21.52 76.97 C37.41 60.1, 53.68 41.56, 89.79 -0.27 M29.57 77.31 C41.29 61.33, 56.35 43.7, 97.61 1.48 M28.89 76.73 C46.37 57.92, 62.33 38.44, 95.74 -0.69 M34.79 77.6 C56.68 51.04, 82.13 21.33, 100.22 1.62 M33.32 77.38 C58.18 50.68, 82.76 22.03, 99.67 0.73 M38.51 79.35 C57.92 54.65, 75.98 33.6, 105.61 -0.79 M38.63 78.68 C59.78 52.95, 84.15 25.75, 105.85 -0.66 M43.63 76.52 C64.45 56.17, 84.27 34.14, 111.56 0.33 M44.7 78.27 C59.49 58.95, 76.79 40.78, 112.07 0.33 M49.96 77.64 C75.09 50.26, 100.8 20.31, 114.53 1.24 M49.02 77.35 C66.02 59.34, 81.89 38.28, 115.72 0.87 M53.66 79.68 C76.49 51.7, 99.94 24.58, 122.59 1.77 M54.9 76.85 C76.11 52.17, 97.83 26.78, 121.44 -0.21 M60.85 77.22 C75.02 64.05, 85.56 46.48, 128.33 -1.25 M59.73 78.87 C84.48 49.05, 110.81 17.88, 126.68 1.32 M63.77 79.53 C86.19 51.76, 110.78 24.78, 132.31 -0.21 M65.82 78.15 C82.92 56.02, 99.98 35.81, 131.88 -0.8 M70.41 79.72 C95.72 48.18, 120.54 18.58, 136.71 0.51 M70.73 77.47 C83.73 61.37, 99.58 44.91, 136.76 0.21 M76.58 75.84 C93.6 57.16, 110.3 34.67, 141.41 1.58 M76.03 77.08 C95.36 54.28, 116.32 31.34, 143.15 -0.5 M79.58 76.05 C103.41 51.75, 125.82 25.99, 149.69 1.87 M79.66 78.19 C98.43 56.39, 119.48 32.98, 147.29 0.14 M86.35 75.69 C106.11 55.36, 124.52 33.98, 152.26 -0.4 M86.73 78.35 C103.58 57.35, 119.61 38.75, 154.66 0.47 M91 78.45 C117.76 48.05, 143.33 20.98, 156.99 1.46 M91.81 78.95 C106.62 59.27, 122.28 40.94, 158.27 -0.42 M95.05 77.47 C119.61 51.59, 138.18 28.42, 164.92 -0.33 M97.78 78.56 C117.62 53.41, 137.45 30.32, 163.49 0.73 M100.97 76.47 C121.43 55.44, 139.97 32.46, 168.01 1.23 M102.12 78.49 C129.16 46.59, 155.82 16.87, 170.35 0.81 M108.34 78.88 C125.74 56.35, 143.01 38.03, 171.83 2.41 M107.72 78.12 C126.12 55.6, 144.57 35.04, 173.05 1.25 M111.48 76.96 C131.11 53.97, 152.09 31.08, 173.95 5.24 M113.2 78.41 C134.62 52.25, 156.22 27.21, 174.92 6.77 M119.56 76.94 C139.3 55.73, 157.9 31.25, 172.56 13.28 M117.72 77.3 C136.4 55.04, 154.97 33.79, 173.84 13.42 M122.23 76.11 C134 66.08, 144.95 52.26, 172.89 20.56 M123.3 77.16 C133.08 65.5, 143.66 53.49, 175.26 19.93 M129.74 75.97 C137 67.15, 148.37 56.04, 173.4 23.46 M129.62 78.21 C139.93 65.47, 148.15 53.62, 173.1 25.81 M134.59 79.39 C146.37 64.37, 157.64 51.05, 173.24 30.56 M134.34 77.99 C148.14 62.47, 161.98 46.35, 173.92 31.59 M139.61 75.63 C146.63 68.6, 156.69 57.35, 173.18 36.01 M139.92 76.79 C149.77 66.14, 159.88 54.26, 174.52 38.44 M143.62 77.6 C150.73 68.88, 158.71 60.48, 172.47 44.93 M143.89 77.05 C151.72 69.8, 157.93 63.04, 173.5 43.92 M148.9 79.62 C158.47 66.77, 171.17 57.26, 172.39 51.27 M149.09 77.6 C156.8 69.79, 163.64 63.43, 173.45 50.13 M154.07 78.85 C159.31 69.85, 167.77 62.35, 173.77 54.94 M155.18 77.3 C161.78 69.57, 168.3 61.75, 173.25 55.18 M159.03 76.69 C165.02 72.53, 170.1 66.56, 172.56 63.68 M160.27 78.78 C163.41 74.13, 167.47 70.34, 174.24 61.34 M164.82 76.98 C168.66 73.89, 172.82 69.33, 173.19 66.95 M165.28 78.27 C167.19 75.6, 169.38 74.13, 173.91 68.45 M170.24 77.86 C171.92 77.05, 171.97 76.43, 174.14 74.42 M170.78 78.21 C171.78 76.87, 172.9 75.45, 174.14 74.51" stroke="#15aabf" stroke-width="0.5" fill="none"></path><path d="M-1.21 0.16 C64.84 -0.2, 126.02 0.97, 171.38 -1.66 M-0.64 0.7 C60.98 0.33, 122.29 0.81, 171.98 0.62 M172.92 0.86 C172.75 15.81, 172.25 31.92, 171.63 77.71 M173.17 0.81 C174.22 27.41, 173.17 54.61, 173 75.77 M174.5 75.41 C116.67 80.25, 58.44 80.27, -0.79 76.96 M173.5 75.77 C127.92 76.07, 83.34 75.87, -0.05 76.59 M-1.67 76.48 C-1.5 45.34, 0.19 16.06, -1.8 1.21 M-0.38 77.65 C0.04 57.97, 0.81 40.34, 0.31 -0.84" stroke="#000000" stroke-width="1" fill="none"></path></g><g transform="translate(602.5703125 130.05859375) rotate(0 145.5 18)"><text x="0" y="25" font-family="arial,sans-serif" font-size="28px" fill="#000000" text-anchor="start" style="white-space: pre;" direction="ltr">&lt;- Component update</text></g><g transform="translate(347.4375 33.9453125) rotate(0 53 18)"><text x="0" y="25" font-family="arial,sans-serif" font-size="28px" fill="#000000" text-anchor="start" style="white-space: pre;" direction="ltr">&lt;App /&gt;</text></g><g stroke-linecap="round" transform="translate(357.83984375 438.36328125) rotate(0 22.630859375 22.814453125)"><path d="M0 0 C0 0, 0 0, 0 0 M0 0 C0 0, 0 0, 0 0 M-0.78 6.01 C1.23 4.8, 1.6 3.53, 5.37 0.02 M-0.22 6.36 C0.91 4.67, 1.98 3.79, 5.11 0.68 M0.51 12.66 C2.01 10.17, 5.64 7.66, 9.96 1.12 M0.34 12.32 C2.88 9.11, 5.23 6.81, 11.38 -0.07 M1.51 17.57 C7.35 9.4, 10.66 5.72, 13.82 -1.63 M-0.56 17.89 C5.3 11.91, 10.27 7.49, 15.3 -0.21 M-1.34 23.71 C6.49 20.9, 9.11 15.46, 19.84 0.76 M0.69 24.14 C8.43 14.95, 17.68 5.47, 20.31 -0.86 M1.28 31.1 C7.86 23.4, 14.2 11.21, 27.29 -1.05 M-0.94 30.55 C10.66 17.68, 19.8 7.4, 25.67 -0.63 M-2.21 37.29 C9.69 27.81, 16.44 16.13, 33.31 0.34 M-1.16 36.77 C5.93 27.91, 13.39 20.56, 32.61 0.26 M0.7 42.93 C11.6 30.05, 19.77 19.23, 38.4 -1.41 M-0.66 42.36 C11 28.62, 21.87 16.04, 36.73 -0.49 M1.53 46.86 C16.84 31.99, 29.55 15.51, 42.56 -1.36 M2.35 46.25 C17.23 28.23, 35.07 8.61, 42.89 0.07 M6.95 47.75 C16.68 39.29, 23.52 27.21, 46.21 2.68 M7.13 46.67 C14.77 37.2, 23.27 27.27, 46.81 0.42 M11.77 46.01 C24.08 34.03, 37.82 18.13, 47.08 6.99 M11.98 47.37 C20.72 37.49, 29.3 26.88, 46.65 7.73 M15.72 48.13 C28.12 34.54, 38.24 26, 48.27 14.5 M17.75 46.26 C25.89 36.61, 34.91 25.84, 45.72 14.72 M22.98 49.02 C32.81 36.71, 41.73 27.76, 45.27 19.49 M22.06 48.11 C29.45 40.84, 34.24 33.79, 46.26 18.69 M27.07 45.45 C36.25 36.86, 40.57 31.85, 46.84 24.48 M28.88 46.24 C34.21 39.35, 39.54 32.25, 46.93 26.71 M31.8 45.4 C36.73 41.45, 41.96 39.2, 46.48 30.04 M32.11 48.23 C36.45 43.15, 41.24 38.45, 47.02 31.75 M38.7 46.3 C39.86 44.34, 40.86 43.51, 47.46 36.72 M38.15 46.4 C40.57 44.97, 42.1 43.24, 46.68 38.03 M43.89 47.06 C44.79 46.65, 45.7 45.44, 46.11 44.03 M43.82 47.33 C44.49 46.67, 44.94 45.95, 46.53 44.16" stroke="#15aabf" stroke-width="0.5" fill="none"></path><path d="M1.48 -1.34 C14.13 1.57, 25.84 -0.55, 44.15 -0.52 M0.58 0.38 C16.58 0.99, 31.8 0.68, 45.95 0.46 M44.92 1.82 C46.92 17.5, 45.85 31.59, 46.86 47.43 M44.31 0.07 C44.49 11.11, 44.9 24.02, 45.78 44.76 M44.33 46.71 C33.76 43.68, 24.96 46.73, 1.47 45.6 M45.17 45.27 C33.49 45.33, 22.02 46.18, 0.03 45.88 M-0.77 46.32 C-0.49 28.79, -1.23 12.23, 0.97 -0.03 M-0.29 45.87 C0.44 28.01, -0.11 10.71, -0.42 -0.67" stroke="#000000" stroke-width="1" fill="none"></path></g><g transform="translate(417.90625 446.40625) rotate(0 178.5 18)"><text x="0" y="25" font-family="arial,sans-serif" font-size="28px" fill="#000000" text-anchor="start" style="white-space: pre;" direction="ltr">Components that rerender</text></g></svg>