<svg version="1.1" xmlns="http://www.w3.org/2000/svg" viewBox="0 0 903.5703125 493.9921875" width="1807.140625" height="987.984375" filter="invert(93%) hue-rotate(180deg)">
  <!-- svg-source:excalidraw -->
  
  <defs>
    <style>
      @font-face {
        font-family: "Virgil";
        src: url("https://excalidraw.com/Virgil.woff2");
      }
      @font-face {
        font-family: "Cascadia";
        src: url("https://excalidraw.com/Cascadia.woff2");
      }
    </style>
  </defs>
  <rect x="0" y="0" width="903.5703125" height="493.9921875" fill="#ffffff"></rect><g stroke-linecap="round" transform="translate(308.09375 10) rotate(0 86.427734375 38.337890625)"><path d="M1.64 1.17 C47.39 -2.1, 98.65 0.93, 171.31 -1.53 M0.24 0.16 C44.42 0.1, 87.7 0.36, 172.96 0.83 M172.6 -0.64 C172.62 20.41, 174.16 40.75, 173.13 75.77 M173.53 -0.93 C172.41 28.99, 173.35 55.95, 172.26 77.33 M170.96 76.4 C104.25 76.61, 36.76 75.16, -0.62 77.82 M173.47 77.02 C114.95 76.99, 56.37 77.99, 0.08 76.21 M0.44 75.55 C0.45 49.49, 1.38 18.2, 0.36 1.79 M0.91 75.91 C0.33 56.36, -0.03 38.11, -0.48 -0.75" stroke="#000000" stroke-width="1" fill="none"></path></g><g stroke-linecap="round" transform="translate(209.177734375 114.767578125) rotate(0 86.5 38.337890625)"><path d="M1.17 -1.2 C55.03 0.05, 114.61 -2.96, 171.47 -0.91 M0.16 0.43 C41.12 -0.7, 82.05 -0.31, 173.83 -0.32 M172.36 0.14 C172.51 20.89, 172.31 38.67, 172.09 78.06 M172.07 -0.28 C174.18 21.97, 172.83 42.02, 173.65 77.59 M172.73 75.75 C129.79 74.31, 83.68 74.42, 1.15 77.38 M173.34 76.68 C106.39 77.08, 40.82 77.83, -0.46 77.43 M-1.12 77.72 C1.75 49.74, -0.79 19.23, 1.79 -0.94 M-0.76 76.74 C-0.85 56.02, 0.28 35.46, -0.75 -0.82" stroke="#000000" stroke-width="1" fill="none"></path></g><g stroke-linecap="round" transform="translate(419.908203125 111.818359375) rotate(0 86.427734375 38.337890625)"><path d="M-1.2 -1.52 C59.17 0.51, 113.87 -2.54, 171.95 -1.3 M0.43 0.45 C55.03 0.43, 110.72 0.54, 172.53 -0.5 M173 -0.13 C174.44 19.12, 173.03 38, 174.24 76.23 M172.58 0.69 C174.04 27.21, 172.78 56.37, 173.77 76.26 M171.93 78.12 C135.35 76.43, 98.66 77.59, 0.7 78.37 M172.86 76.64 C116.81 78.23, 62.19 76.8, 0.75 77.45 M1.04 78.25 C1.8 54.45, 0.19 35.95, -0.94 -0.69 M0.07 75.75 C-0.99 54.59, -1.19 31.33, -0.82 0.24" stroke="#000000" stroke-width="1" fill="none"></path></g><g stroke-linecap="round" transform="translate(113.939453125 223.65234375) rotate(0 86.427734375 38.337890625)"><path d="M-1.52 1.47 C67.55 -0.5, 130.54 0.13, 171.56 0.4 M0.45 -0.28 C56.74 -0.64, 112.88 -1.06, 172.36 -0.46 M172.72 1.69 C172.27 22.3, 171.7 45.43, 172.41 77.94 M173.55 0.67 C171.49 27.58, 172.8 57.26, 172.44 75.8 M174.3 75.95 C137.34 75.25, 102.99 76.58, 1.7 77.08 M172.82 76.01 C111.27 76.76, 47.29 77.43, 0.77 76.45 M1.57 78.65 C-0.53 52.36, 2.22 26.38, -0.69 -0.18 M-0.92 76.38 C0.79 46.18, -0.16 15.83, 0.24 0.31" stroke="#000000" stroke-width="1" fill="none"></path></g><g stroke-linecap="round" transform="translate(324.666015625 220.703125) rotate(0 86.427734375 38.337890625)"><path d="M1.47 1.52 C60.41 -0.22, 123 0.01, 173.25 0.48 M-0.28 0.71 C54.79 0.05, 109.05 -1.27, 172.39 -0.13 M174.54 -0.34 C173.18 19.65, 174.29 40.69, 174.12 78.02 M173.52 -0.65 C172.05 16.54, 173.56 31.36, 171.98 75.73 M172.13 76.67 C122.75 79.07, 74.58 79.62, 0.41 77.91 M172.19 77.64 C115.19 76.15, 58.11 77.38, -0.23 76.89 M1.97 75.71 C-0.04 59.78, -1.34 38.61, -0.18 1.83 M-0.29 76.89 C-0.54 58.77, -0.87 42.59, 0.31 -0.78" stroke="#000000" stroke-width="1" fill="none"></path></g><g stroke-linecap="round" transform="translate(530.162109375 220.42578125) rotate(0 86.427734375 38.337890625)"><path d="M1.52 -1.54 C39.94 -2.18, 81.63 -0.87, 173.34 0.33 M0.71 0.1 C60.1 0.17, 118.05 0.02, 172.73 -0.32 M172.52 0.27 C171.89 24.92, 172.36 48.35, 174.2 74.82 M172.2 -0.59 C174.04 21.79, 172.97 40.87, 171.91 76.54 M172.85 76.05 C130.13 76.75, 86.81 76.46, 1.24 77.36 M173.82 76.76 C120.5 76.28, 69.85 75.3, 0.22 76.11 M-0.97 77.03 C1.19 48.73, -1.29 22.49, 1.83 -1.52 M0.21 76.19 C-0.04 52.33, 0.95 29.92, -0.78 -0.7" stroke="#000000" stroke-width="1" fill="none"></path></g><g stroke-linecap="round" transform="translate(10 330.150390625) rotate(0 86.427734375 38.337890625)"><path d="M-1.54 -1.53 C37.84 -2.61, 77.91 -0.83, 173.18 0.86 M0.1 0.83 C59.31 -1.72, 118.81 -1.35, 172.54 0.07 M173.13 -0.91 C174.88 22.05, 174.77 46.33, 171 76.12 M172.26 0.65 C174.28 27.9, 172.49 55.69, 172.72 76.21 M172.23 77.82 C109.23 78.36, 44.61 77.91, 0.68 76.68 M172.94 76.21 C122.43 79.11, 70.27 78.56, -0.56 77.2 M0.36 78.47 C-1.7 46.96, -0.94 20.44, -1.52 0.14 M-0.48 75.93 C-0.59 61, 0.53 44.05, -0.7 -0.17" stroke="#000000" stroke-width="1" fill="none"></path></g><g stroke-linecap="round" transform="translate(220.97265625 326.951171875) rotate(0 86.427734375 38.337890625)"><path d="M-1.53 -0.91 C63.27 1.73, 129.62 1.66, 173.71 0.9 M0.83 -0.32 C46.49 -0.64, 93.85 -0.5, 172.93 -0.07 M171.95 1.38 C172.28 30.73, 174.07 57.08, 172.3 78.06 M173.51 0.92 C171.94 27.24, 171.41 56.08, 172.39 77.4 M174 77.38 C128.96 76.54, 82.91 76.82, 0 76.6 M172.39 77.43 C133.26 76.59, 92.34 76.26, 0.52 77.46 M1.79 75.73 C-0.32 45.93, 2.2 14.03, 0.14 -1.85 M-0.75 75.86 C0.08 56.22, -0.95 34.45, -0.17 -0.71" stroke="#000000" stroke-width="1" fill="none"></path></g><g stroke-linecap="round" transform="translate(426.52734375 327.158203125) rotate(0 86.427734375 38.337890625)"><path d="M-0.91 -1.3 C65.36 1.8, 130.24 2.18, 173.76 -0.56 M-0.32 -0.5 C63.66 -1.55, 127.93 -1.36, 172.79 0.84 M174.24 -0.44 C174.23 23.06, 171.11 42.86, 174.24 78.01 M173.77 -0.42 C171.53 17.06, 172.26 35.55, 173.58 76.31 M173.56 78.37 C121.48 78.91, 69.98 77.67, -0.08 75.35 M173.61 77.45 C104.14 76.1, 35.31 76.4, 0.79 77.66 M-0.94 75.99 C-0.32 59.21, -1.66 38.21, -1.85 -0.58 M-0.82 76.92 C0.68 51.28, -0.33 27.28, -0.71 -0.06" stroke="#000000" stroke-width="1" fill="none"></path></g><g stroke-linecap="round" transform="translate(634.478515625 324.955078125) rotate(0 86.427734375 38.337890625)"><path d="M-1.3 0.4 C39.03 1.11, 77.94 1.69, 172.29 1.42 M-0.5 -0.46 C53.54 0.24, 107.4 0.49, 173.7 -0.17 M172.41 1.27 C173.85 22.2, 171.95 49.49, 174.19 75.37 M172.44 -0.87 C172.41 18.33, 172.89 37.65, 172.49 76.67 M174.55 77.08 C127.63 77.96, 79.93 77.2, -1.33 78.6 M173.63 76.45 C119.75 77.41, 66.73 78.76, 0.99 76.19 M-0.69 76.49 C1.14 50.77, -0.55 26.07, -0.58 0.42 M0.24 76.98 C-0.21 56.68, 0.4 37.38, -0.06 -0.94" stroke="#000000" stroke-width="1" fill="none"></path></g><g transform="translate(602.5703125 130.05859375) rotate(0 145.5 18)"><text x="0" y="25" font-family="arial,sans-serif" font-size="28px" fill="#000000" text-anchor="start" style="white-space: pre;" direction="ltr">&lt;- Component update</text></g><g transform="translate(347.4375 33.9453125) rotate(0 53 18)"><text x="0" y="25" font-family="arial,sans-serif" font-size="28px" fill="#000000" text-anchor="start" style="white-space: pre;" direction="ltr">&lt;App /&gt;</text></g><g stroke-linecap="round" transform="translate(357.83984375 438.36328125) rotate(0 22.630859375 22.814453125)"><path d="M0 0 C0 0, 0 0, 0 0 M0 0 C0 0, 0 0, 0 0 M0.4 5.86 C1.12 4.46, 3.34 2.19, 4.6 -0.04 M-0.2 6.52 C1.61 4.36, 3.63 2.55, 5.04 -0.04 M1.71 10.59 C3.25 8.01, 8.39 2.95, 12.13 0.66 M-0.61 11.92 C4.2 8.45, 6.3 4.88, 10.13 0.15 M1.39 17.89 C2.82 11.6, 10.94 5.26, 15.63 0.38 M-0.11 17.92 C5.03 13.46, 9.09 8.73, 15.74 -0.45 M-0.67 25.68 C9.67 15.79, 16.39 7.2, 19.3 -1.77 M0.1 24.04 C6.13 17.17, 13.73 9.83, 21.06 -0.4 M0.79 31 C8.38 21.95, 14.69 14.29, 26.78 -1.2 M-0.26 29.76 C8.2 19.58, 16.78 9.2, 25.66 1.13 M-1.87 36.66 C9.66 27.45, 17.28 17.49, 32 1.59 M-0.44 36.64 C5.29 28.14, 13.7 21.16, 30.95 -0.5 M1.24 42.03 C12.65 27.97, 25.73 12.3, 36.41 2.16 M0.62 42.61 C10.42 30.7, 20.26 19.3, 37.27 -0.3 M3.63 46.06 C9.85 34.99, 20.63 25.9, 42.27 -0.99 M2.8 46.94 C13.76 33.28, 26.24 17.54, 42.57 0.34 M7.83 46.63 C15.79 37.39, 22.81 27.08, 48.76 -0.66 M7.54 46.79 C17.82 33.48, 28.74 20.19, 47.06 1.5 M13.49 46.35 C22.57 34.3, 34.37 20.45, 46.11 5.71 M12.44 47.07 C24.41 32.98, 35.71 19.7, 46.55 6.5 M19.39 46.64 C27.57 39.56, 35.41 29.26, 46.76 12.39 M16.63 47.62 C27 35.35, 35.08 25.76, 46.17 14.34 M22.17 45.96 C28.38 39.91, 36.27 31.65, 45.64 19.94 M21.85 47.52 C29.62 39.95, 35.73 30.93, 46 19.31 M26.35 46.99 C34.28 38.42, 38.66 34.76, 48.23 23.82 M28.01 47.38 C34.57 39.2, 41.7 30.7, 45.52 25.79 M32.54 45.83 C38.49 40.65, 43.29 36.5, 47.18 30.07 M33.65 46.63 C39.37 41.76, 43.27 34.9, 47.65 30.99 M38.27 47.36 C41.35 43.07, 45.16 40.22, 46.92 36.91 M38.31 46.53 C41.29 43.69, 44.87 40.16, 46.24 37.94 M44.05 47.37 C44.13 46.44, 44.66 46.2, 46.14 44.06 M43.83 47.41 C44.44 46.49, 45.24 45.37, 46.45 44.31" stroke="#15aabf" stroke-width="0.5" fill="none"></path><path d="M0.33 0.86 C11.54 -0.67, 22.7 0.1, 46.91 -0.64 M-0.32 0.07 C11.27 0.9, 22.5 0.19, 44.81 0.69 M43.41 -0.56 C46.94 14.01, 44.25 24.17, 46.57 47.46 M45.12 -0.46 C45.59 11.42, 44.86 23.24, 45.84 45.98 M45.94 45.63 C27.77 44.58, 12.35 46.08, -0.92 47.13 M44.7 46.15 C28.99 46.71, 10.65 45.91, 0.89 45.16 M-1.52 45.77 C-1.81 32.92, 0.46 20.42, -1.49 -1.63 M-0.7 45.46 C-0.85 30.78, -1.08 15.24, 0.88 -0.4" stroke="#000000" stroke-width="1" fill="none"></path></g><g transform="translate(417.90625 446.40625) rotate(0 178.5 18)"><text x="0" y="25" font-family="arial,sans-serif" font-size="28px" fill="#000000" text-anchor="start" style="white-space: pre;" direction="ltr">Components that rerender</text></g></svg>